<?xml version="1.0" encoding="UTF-8"?>
<svg id="Layer_1" xmlns="http://www.w3.org/2000/svg" version="1.1" viewBox="0 0 1000 1000">
  <!-- Generator: Adobe Illustrator 29.3.1, SVG Export Plug-In . SVG Version: 2.1.0 Build 151)  -->
  <defs>
    <style>
      .st0 {
        fill: #1a1a2e;
      }

      .st1 {
        fill: #c9e5e5;
      }
    </style>
  </defs>
  <rect class="st0" width="1000" height="1000"/>
  <path class="st1" d="M208.17,268.68l354.41-70.94,20.98,104.83-354.41,70.94c-15.33,3.07-30.24-6.87-33.3-22.2l-9.87-49.33c-3.07-15.32,6.87-30.24,22.2-33.3Z"/>
  <rect class="st1" x="621.51" y="182.04" width="49.77" height="106.91" transform="translate(-33.65 131.44) rotate(-11.32)"/>
  <path class="st1" d="M763.68,186.36l9.87,49.33c3.07,15.33-6.87,30.24-22.2,33.3l-21.15,4.23-20.98-104.83,21.15-4.23c15.33-3.07,30.24,6.88,33.3,22.2Z"/>
  <path class="st1" d="M794.58,450.9v245.11c0,15.63-12.67,28.3-28.3,28.3h-397.1c-7.51,0-14.7,2.98-20.01,8.29-31.81,31.81-63.63,63.63-95.44,95.44-17.83,17.83-48.31,5.2-48.31-20.01v-357.13c0-15.63,12.67-28.3,28.3-28.3h532.56c15.63,0,28.3,12.67,28.3,28.3Z"/>
  <path class="st0" d="M422.62,564.07v14.02c0,10.61-8.6,19.22-19.22,19.22h-23.16c-10.61,0-19.22,8.6-19.22,19.22v23.16c0,10.61-8.6,19.22-19.22,19.22h-14.01c-10.61,0-19.22-8.6-19.22-19.22v-23.16c0-10.61-8.6-19.22-19.22-19.22h-23.16c-10.61,0-19.22-8.6-19.22-19.22v-14.02c0-10.61,8.6-19.22,19.22-19.22h23.16c10.61,0,19.22-8.6,19.22-19.22v-23.15c0-10.61,8.6-19.22,19.22-19.22h14.01c10.61,0,19.22,8.6,19.22,19.22v23.15c0,10.61,8.6,19.22,19.22,19.22h23.16c10.61,0,19.22,8.6,19.22,19.22Z"/>
  <circle class="st0" cx="665.2" cy="509.49" r="26.22"/>
  <circle class="st0" cx="726.79" cy="571.08" r="26.22"/>
  <circle class="st0" cx="665.2" cy="632.68" r="26.22"/>
  <circle class="st0" cx="603.6" cy="571.08" r="26.22"/>
</svg>